<svg width="52" height="52" viewBox="0 0 52 52" fill="none" xmlns="http://www.w3.org/2000/svg">
<path d="M26.4009 43.1423L27.2849 44.9363L26.4009 43.1423ZM25.5994 43.1423L24.7154 44.9363L25.5994 43.1423ZM39.1668 23.8333C39.1668 28.8063 36.4916 32.8504 33.3012 35.9029C30.1191 38.9474 26.6311 40.7992 25.5169 41.3483L27.2849 44.9363C28.5706 44.3028 32.4656 42.2383 36.0665 38.7931C39.6591 35.3558 43.1668 30.3367 43.1668 23.8333H39.1668ZM26.4834 41.3483C25.3692 40.7992 21.8812 38.9474 18.6991 35.9029C15.5088 32.8504 12.8335 28.8063 12.8335 23.8333H8.8335C8.8335 30.3367 12.3412 35.3558 15.9339 38.7931C19.5348 42.2383 23.4298 44.3028 24.7154 44.9363L26.4834 41.3483ZM12.8335 23.8333C12.8335 16.5616 18.7284 10.6667 26.0002 10.6667V6.66666C16.5193 6.66666 8.8335 14.3524 8.8335 23.8333H12.8335ZM26.0002 10.6667C33.2719 10.6667 39.1668 16.5616 39.1668 23.8333H43.1668C43.1668 14.3524 35.4811 6.66666 26.0002 6.66666V10.6667ZM25.5169 41.3483C25.8187 41.1996 26.1816 41.1996 26.4834 41.3483L24.7154 44.9363C25.5283 45.3369 26.472 45.3369 27.2849 44.9363L25.5169 41.3483Z" fill="#FFA726"/>
<path fill-rule="evenodd" clip-rule="evenodd" d="M27.7463 17.392C27.1947 17.6921 26.5359 17.8664 25.8284 17.8664C25.2033 17.8664 24.6163 17.7303 24.1076 17.4917C23.5775 18.4512 22.4856 19.1096 21.2246 19.1096C19.4437 19.1096 18 17.7964 18 16.1764C18 14.5565 19.4437 13.2432 21.2246 13.2432C21.7612 13.2432 22.2672 13.3624 22.7123 13.5734C23.2999 12.6381 24.4748 12 25.8284 12C27.1989 12 28.3864 12.6543 28.9664 13.6088C29.9856 12.9487 31.2722 12.9454 32.1453 13.6927C33.2374 14.6275 33.2688 16.383 32.2153 17.6137C31.1619 18.8444 29.4226 19.0842 28.3304 18.1494C28.0797 17.9347 27.8849 17.6769 27.7463 17.392Z" fill="#BBD43E"/>
<path d="M24.9746 16.7855C25.1375 16.7856 25.3005 16.7857 25.4684 16.7859C27.1859 16.8107 29.1602 16.9543 30.5305 17.8929C30.7453 17.9765 30.9601 18.0602 31.1815 18.1463C32.5892 18.7239 33.853 19.5156 34.4813 20.746C34.5919 21.1492 34.6633 21.5022 34.7058 21.9097C34.727 22.0859 34.727 22.0859 34.7487 22.2657C34.8364 23.1349 34.8462 23.9988 34.8363 24.8702C34.8352 24.9833 34.8341 25.0964 34.833 25.213C34.8266 25.782 34.8152 26.3504 34.7958 26.9192C34.7624 28.2647 34.9509 29.4294 35.3853 30.7245C35.5989 31.3804 35.7153 32.0174 35.7833 32.6932C35.7964 32.815 35.8095 32.9368 35.823 33.0622C35.922 34.086 35.9664 35.1107 35.9853 36.1376C35.99 36.2856 35.9947 36.4336 35.9995 36.586C36.0025 37.602 36.0025 37.602 35.6107 38.1225C35.1997 38.3149 35.1997 38.3149 34.7058 38.2774C34.5725 38.2402 34.4391 38.2031 34.3017 38.1648C34.295 37.9685 34.2883 37.7722 34.2814 37.57C34.2198 36.0875 34.1 34.6474 33.7659 33.189C33.6286 32.5853 33.5569 32.0221 33.5834 31.4075C33.4056 31.4075 33.2278 31.4075 33.0446 31.4075C33.0286 31.4991 33.0126 31.5907 32.9961 31.6852C32.7941 32.6805 32.4127 33.4736 31.8324 34.3544C31.7574 34.4736 31.6824 34.5929 31.6052 34.7157C31.2181 35.3177 30.8107 35.8591 30.2983 36.3922C29.8253 36.9022 29.6936 37.2433 29.7111 37.902C29.6752 38.7208 29.6752 38.7208 29.2285 39.1877C28.7346 39.3661 28.7346 39.3661 28.252 39.3661C27.8367 39.2159 27.8367 39.2159 27.601 38.9719C27.436 38.4954 27.4548 38.0572 27.4775 37.5641C27.359 37.5889 27.2405 37.6137 27.1184 37.6392C26.4483 37.7326 25.822 37.7239 25.1429 37.7143C25.1513 37.8049 25.1596 37.8955 25.1682 37.9888C25.2209 38.9644 25.2209 38.9644 24.8399 39.4599C24.4246 39.6664 24.4246 39.6664 23.9644 39.657C23.4834 39.5023 23.2892 39.413 22.9879 39.0657C22.99 38.7495 23.0072 38.4333 23.0328 38.1178C22.9804 37.192 22.7382 36.7947 21.9332 36.1635C21.4491 35.8127 20.959 35.4682 20.468 35.1241C19.9174 34.7146 19.4483 34.2571 18.9809 33.7819C18.9003 33.7007 18.8196 33.6195 18.7365 33.5358C18.3942 33.1863 18.08 32.8349 17.78 32.4586C17.6039 32.9002 17.5772 33.1892 17.5765 33.6494C17.5763 33.7936 17.5761 33.9378 17.5758 34.0863C17.5765 34.2367 17.5772 34.3871 17.5779 34.5421C17.5772 34.6914 17.5765 34.8406 17.5758 34.9944C17.5762 35.2112 17.5762 35.2112 17.5765 35.4325C17.5767 35.5641 17.5769 35.6957 17.5771 35.8313C17.601 36.2222 17.6823 36.5812 17.78 36.9635C17.8002 37.2478 17.8113 37.5327 17.8136 37.8175C17.8174 38.0321 17.8174 38.0321 17.8213 38.251C17.78 38.6152 17.78 38.6152 17.4208 38.9156C16.9494 38.9343 16.9494 38.9343 16.5229 38.9156C16.3771 38.6793 16.2359 38.4411 16.0963 38.2023C15.9776 38.0037 15.9776 38.0037 15.8564 37.8011C15.0564 35.9442 15.2293 33.9702 15.2545 32.0269C15.2595 31.5663 15.264 31.1057 15.2673 30.645C15.2695 30.3603 15.2727 30.0755 15.2769 29.7907C15.2831 29.1064 15.2355 28.4786 15.0862 27.8036C14.8551 24.4134 14.9006 21.7465 17.6902 19.1224C19.852 17.5406 22.0986 16.7812 24.9746 16.7855ZM21.0125 23.2987C20.5759 23.8463 20.6402 24.0621 20.687 24.7065C20.7106 25.6474 20.7106 25.6474 20.2043 26.1237C20.0562 26.2321 19.908 26.3405 19.7554 26.4521C19.6278 27.1989 19.6538 27.4953 20.0809 28.1602C20.4754 28.5561 20.7598 28.8243 21.3871 28.8999C22.2486 28.9036 22.832 28.8795 23.5267 28.4042C23.9465 27.8777 23.9451 27.672 23.8858 27.0528C23.7219 26.6345 23.7219 26.6345 23.5267 26.302C23.6489 26.2958 23.7711 26.2896 23.8971 26.2832C24.65 26.0957 25.1176 25.6953 25.6817 25.2508C25.7706 25.4738 25.7706 25.4738 25.8613 25.7013C26.3918 26.1064 26.7925 26.4114 27.4775 26.6023C27.6683 26.9677 27.6683 26.9677 27.8367 27.4188C28.0768 28.1076 28.0768 28.1076 28.7346 28.5544C29.104 28.5905 29.104 28.5905 29.4866 28.5732C29.7126 28.567 29.9385 28.5608 30.1713 28.5544C30.1713 28.4553 30.1713 28.3562 30.1713 28.2541C30.275 28.2448 30.3787 28.2355 30.4856 28.2259C31.093 28.0425 31.2834 27.8184 31.608 27.3531C31.7588 26.657 31.7156 26.1592 31.2937 25.5418C30.8878 25.1855 30.8878 25.1855 30.1713 25.2508C30.1713 24.7553 30.1713 24.2598 30.1713 23.7492C30.0528 23.7492 29.9342 23.7492 29.8121 23.7492C29.8047 23.6625 29.7973 23.5758 29.7897 23.4864C29.538 22.9453 29.1669 22.8038 28.555 22.5479C27.8618 22.4351 27.2341 22.4059 26.6084 22.7069C26.28 22.9259 26.28 22.9259 25.8613 23.2987C25.7427 23.3979 25.6242 23.497 25.5021 23.5991C25.3687 23.4814 25.2354 23.3637 25.098 23.2424C24.3222 22.6232 23.742 22.4718 22.6863 22.4893C21.9927 22.5869 21.5071 22.8921 21.0125 23.2987Z" fill="#FFA726"/>
<path d="M18.7573 22.5091L28.1009 21.5767L32.627 23.3055V28.764L29.4218 29.8324L22.7589 30.7648L18.7573 27.3071V22.5091Z" fill="#FFA726"/>
<circle cx="27.3865" cy="25.5411" r="1.82988" fill="white"/>
<circle cx="27.387" cy="25.5411" r="1.09793" fill="black"/>
<circle cx="27.387" cy="25.5411" r="1.09793" fill="black"/>
<circle cx="27.387" cy="25.5411" r="1.09793" fill="black"/>
<circle cx="27.387" cy="25.5411" r="1.09793" fill="black"/>
<circle cx="27.387" cy="25.5411" r="1.09793" fill="black"/>
<circle cx="25.6301" cy="27.5906" r="0.365976" fill="black"/>
<circle cx="25.6301" cy="27.5906" r="0.365976" fill="black"/>
<circle cx="25.6301" cy="27.5906" r="0.365976" fill="black"/>
<circle cx="25.6301" cy="27.5906" r="0.365976" fill="black"/>
<circle cx="25.6301" cy="27.5906" r="0.365976" fill="black"/>
<circle cx="23.7273" cy="25.5411" r="1.82988" fill="white"/>
<circle cx="23.7268" cy="25.5411" r="1.09793" fill="black"/>
<circle cx="23.7268" cy="25.5411" r="1.09793" fill="black"/>
<circle cx="23.7268" cy="25.5411" r="1.09793" fill="black"/>
<circle cx="23.7268" cy="25.5411" r="1.09793" fill="black"/>
<circle cx="23.7268" cy="25.5411" r="1.09793" fill="black"/>
<ellipse cx="20.2866" cy="29.4205" rx="2.34225" ry="2.19586" fill="#FF9800"/>
<ellipse cx="30.6801" cy="29.4205" rx="2.34225" ry="2.19586" fill="#FF9800"/>
<path d="M30.552 19.5774C30.4225 19.4607 30.2345 19.2959 30.1293 19.2134C29.0094 18.3365 28.8928 18.26 28.5857 18.2464C28.2479 18.2358 27.7974 18.4222 27.5611 18.6754C27.2122 19.0424 27.0632 19.5046 27.1856 19.8372C27.2513 20.0214 27.2689 20.0417 27.4771 20.1849C27.9246 20.4877 28.011 20.555 28.4016 20.8757C28.919 21.3037 29.9619 22.489 30.281 23.0026C30.5785 23.4915 30.8074 23.9016 30.8661 24.0522C31.0404 24.5019 31.5012 24.6666 32.0381 24.4643C32.1811 24.4111 32.265 24.3539 32.4836 24.1636C32.7181 23.9594 32.7641 23.9035 32.847 23.7364C32.9 23.6309 32.9564 23.4591 32.9767 23.3544C33.0277 23.0291 32.9385 22.8179 32.1831 21.5406C31.9802 21.1989 30.8989 19.8927 30.552 19.5774Z" fill="#FFBC93"/>
<path d="M30.6506 20.1806C30.5833 20.1245 30.4852 20.0457 30.4295 20.0071C29.8369 19.5971 29.774 19.5628 29.5934 19.5796C29.3943 19.6005 29.113 19.7426 28.9529 19.9057C28.7172 20.1425 28.5921 20.4176 28.638 20.5972C28.6622 20.6969 28.671 20.707 28.7828 20.772C29.0234 20.9087 29.0691 20.9401 29.2746 21.0916C29.5466 21.2941 30.0691 21.8858 30.2169 22.1528C30.3539 22.4075 30.4566 22.6228 30.4793 22.7039C30.5465 22.9461 30.806 23.0031 31.1398 22.845C31.2287 22.8033 31.2829 22.764 31.4274 22.6382C31.5825 22.5032 31.6142 22.4677 31.6765 22.3659C31.7163 22.3016 31.7634 22.1993 31.7838 22.138C31.8399 21.9487 31.804 21.8355 31.459 21.1685C31.3662 20.99 30.8307 20.3325 30.6506 20.1806Z" fill="#FFE2D0"/>
<circle cx="28.4001" cy="19.9524" r="0.102453" transform="rotate(-142.264 28.4001 19.9524)" fill="#FFE2D0"/>
<circle cx="28.0764" cy="19.7015" r="0.102453" transform="rotate(-142.264 28.0764 19.7015)" fill="#FFE2D0"/>
<circle cx="27.7517" cy="19.4507" r="0.102453" transform="rotate(-142.264 27.7517 19.4507)" fill="#FFE2D0"/>
<circle cx="28.0027" cy="19.1267" r="0.102453" transform="rotate(-142.264 28.0027 19.1267)" fill="#FFE2D0"/>
<circle cx="28.3269" cy="19.3775" r="0.102453" transform="rotate(-142.264 28.3269 19.3775)" fill="#FFE2D0"/>
<circle cx="28.6506" cy="19.6283" r="0.102453" transform="rotate(-142.264 28.6506 19.6283)" fill="#FFE2D0"/>
<circle cx="28.9016" cy="19.3042" r="0.102453" transform="rotate(-142.264 28.9016 19.3042)" fill="#FFE2D0"/>
<circle cx="28.5774" cy="19.0533" r="0.102453" transform="rotate(-142.264 28.5774 19.0533)" fill="#FFE2D0"/>
<circle cx="28.2532" cy="18.8024" r="0.102453" transform="rotate(-142.264 28.2532 18.8024)" fill="#FFE2D0"/>
<circle cx="31.5946" cy="23.8482" r="0.102453" transform="rotate(-111.011 31.5946 23.8482)" fill="#FFE2D0"/>
<circle cx="31.4476" cy="23.4657" r="0.102453" transform="rotate(-111.011 31.4476 23.4657)" fill="#FFE2D0"/>
<circle cx="31.3006" cy="23.083" r="0.102453" transform="rotate(-111.011 31.3006 23.083)" fill="#FFE2D0"/>
<circle cx="31.6829" cy="22.9362" r="0.102453" transform="rotate(-111.011 31.6829 22.9362)" fill="#FFE2D0"/>
<circle cx="31.8299" cy="23.3187" r="0.102453" transform="rotate(-111.011 31.8299 23.3187)" fill="#FFE2D0"/>
<circle cx="31.9769" cy="23.7013" r="0.102453" transform="rotate(-111.011 31.9769 23.7013)" fill="#FFE2D0"/>
<circle cx="32.3597" cy="23.5544" r="0.102453" transform="rotate(-111.011 32.3597 23.5544)" fill="#FFE2D0"/>
<circle cx="32.2127" cy="23.1717" r="0.102453" transform="rotate(-111.011 32.2127 23.1717)" fill="#FFE2D0"/>
<circle cx="32.0653" cy="22.7891" r="0.102453" transform="rotate(-111.011 32.0653 22.7891)" fill="#FFE2D0"/>
<path fill-rule="evenodd" clip-rule="evenodd" d="M22.2635 29.5579C22.1659 29.5991 22.1135 29.6427 22.1135 29.6879C22.1135 29.9375 23.7147 30.1399 25.6898 30.1399C27.6649 30.1399 29.2661 29.9375 29.2661 29.6879C29.2661 29.6427 29.2137 29.599 29.116 29.5579C28.6744 29.7442 27.3075 29.88 25.6897 29.88C24.0721 29.88 22.7053 29.7442 22.2635 29.5579Z" fill="black"/>
<path fill-rule="evenodd" clip-rule="evenodd" d="M30.633 34.2168C30.6628 34.2082 30.6892 34.1923 30.7111 34.1683C30.832 34.0364 30.7697 33.7133 30.5721 33.4466C30.3745 33.1799 30.1164 33.0706 29.9955 33.2025C29.9737 33.2264 29.9578 33.2565 29.9476 33.2915C30.082 33.2528 30.2844 33.3656 30.4462 33.584C30.608 33.8024 30.679 34.0587 30.633 34.2168Z" fill="#7E4E09"/>
<path fill-rule="evenodd" clip-rule="evenodd" d="M30.1505 34.811C30.1801 34.8024 30.2064 34.7864 30.2282 34.7626C30.349 34.6307 30.2868 34.3075 30.0892 34.0408C29.8916 33.7741 29.6335 33.6648 29.5126 33.7968C29.4907 33.8207 29.4749 33.8508 29.4647 33.8858C29.5991 33.8468 29.8017 33.9596 29.9636 34.1782C30.1254 34.3966 30.1964 34.6529 30.1505 34.811Z" fill="#7E4E09"/>
<path fill-rule="evenodd" clip-rule="evenodd" d="M29.5239 35.1844C29.5536 35.1758 29.5799 35.1598 29.6017 35.136C29.7226 35.004 29.6604 34.6809 29.4628 34.4142C29.2652 34.1475 29.007 34.0382 28.8861 34.1702C28.8643 34.194 28.8484 34.2242 28.8382 34.2592C28.9726 34.2202 29.1751 34.3331 29.337 34.5516C29.4989 34.77 29.5699 35.0263 29.5239 35.1844Z" fill="#7E4E09"/>
<path fill-rule="evenodd" clip-rule="evenodd" d="M28.8012 35.5768C28.8309 35.5683 28.8572 35.5523 28.8791 35.5284C28.9999 35.3965 28.9377 35.0733 28.7401 34.8066C28.5425 34.5399 28.2844 34.4307 28.1635 34.5626C28.1416 34.5865 28.1257 34.6166 28.1156 34.6516C28.25 34.6127 28.4525 34.7255 28.6143 34.944C28.7762 35.1624 28.8472 35.4187 28.8012 35.5768Z" fill="#7E4E09"/>
<path fill-rule="evenodd" clip-rule="evenodd" d="M27.4801 35.4828C27.4475 35.5492 27.4384 35.6002 27.4561 35.6326C27.5535 35.8113 28.4303 35.3515 29.4144 34.6057C30.3985 33.8598 31.1173 33.1103 31.0198 32.9316C31.0021 32.8993 30.959 32.8879 30.8944 32.8952C30.747 33.1954 30.1191 33.8087 29.3131 34.4195C28.5069 35.0305 27.7728 35.4495 27.4801 35.4828Z" fill="#7E4E09"/>
<path fill-rule="evenodd" clip-rule="evenodd" d="M17.5834 21.1035C17.5375 21.1066 17.4943 21.1193 17.4553 21.1422C17.2403 21.269 17.2377 21.663 17.4495 22.0221C17.6613 22.3813 18.0073 22.5696 18.2224 22.4428C18.2613 22.4199 18.2932 22.3882 18.3182 22.3495C18.1104 22.3638 17.8469 22.1842 17.6734 21.8901C17.5 21.5959 17.4703 21.2784 17.5834 21.1035Z" fill="#7E4E09"/>
<path fill-rule="evenodd" clip-rule="evenodd" d="M18.4617 20.5179C18.4158 20.5211 18.3726 20.5337 18.3337 20.5566C18.1187 20.6835 18.1161 21.0774 18.3279 21.4366C18.5397 21.7957 18.8857 21.984 19.1008 21.8572C19.1397 21.8343 19.1717 21.8026 19.1967 21.7639C18.9888 21.7782 18.7253 21.5987 18.5518 21.3045C18.3783 21.0103 18.3487 20.6929 18.4617 20.5179Z" fill="#7E4E09"/>
<path fill-rule="evenodd" clip-rule="evenodd" d="M19.4863 20.2251C19.4405 20.2283 19.3975 20.241 19.3586 20.2639C19.1436 20.3907 19.141 20.7846 19.3528 21.1438C19.5646 21.5029 19.9106 21.6913 20.1257 21.5644C20.1646 21.5415 20.1966 21.5098 20.2216 21.4711C20.0137 21.4856 19.75 21.306 19.5764 21.0117C19.4029 20.7176 19.3733 20.4001 19.4863 20.2251Z" fill="#7E4E09"/>
<path fill-rule="evenodd" clip-rule="evenodd" d="M20.6578 19.9324C20.612 19.9356 20.5689 19.9482 20.53 19.9711C20.315 20.0979 20.3124 20.4919 20.5242 20.851C20.736 21.2102 21.082 21.3985 21.2971 21.2717C21.336 21.2487 21.368 21.217 21.3929 21.1784C21.1851 21.1928 20.9214 21.0132 20.7479 20.719C20.5744 20.4248 20.5448 20.1073 20.6578 19.9324Z" fill="#7E4E09"/>
<path fill-rule="evenodd" clip-rule="evenodd" d="M22.5626 20.35C22.6295 20.2796 22.6576 20.2218 22.6411 20.1797C22.5503 19.9472 21.1343 20.2832 19.4785 20.9302C17.8227 21.5772 16.5541 22.2902 16.645 22.5227C16.6614 22.5648 16.7214 22.5883 16.8184 22.5946C17.121 22.2764 18.2174 21.7022 19.5735 21.1723C20.9292 20.6426 22.1242 20.3213 22.5626 20.35Z" fill="#7E4E09"/>
</svg>
