<svg width="28" height="28" viewBox="0 0 28 28" fill="none" xmlns="http://www.w3.org/2000/svg">
<path d="M14 24.5C16.4292 24.5 18.7833 23.6577 20.6611 22.1166C22.5389 20.5755 23.8243 18.431 24.2982 16.0484C24.7722 13.6659 24.4053 11.1927 23.2602 9.05034C22.115 6.90795 20.2625 5.22889 18.0182 4.29927C15.7739 3.36964 13.2766 3.24696 10.952 3.95213C8.62738 4.65729 6.61918 6.14668 5.26957 8.16651C3.91996 10.1863 3.31245 12.6116 3.55056 15.0292C3.78867 17.4467 4.85765 19.7069 6.57538 21.4246" stroke="#FFA726" stroke-width="2" stroke-linecap="round"/>
<path d="M18.667 11.6665L14.2357 16.984C13.5801 17.7707 13.2523 18.1641 12.8118 18.1841C12.3712 18.204 12.0092 17.842 11.285 17.1179L9.33366 15.1665" stroke="#FFA726" stroke-width="2" stroke-linecap="round"/>
</svg>
