<svg width="28" height="28" viewBox="0 0 28 28" fill="none" xmlns="http://www.w3.org/2000/svg">
<path d="M14.0003 16.3335L13.6468 16.687L14.0003 17.0406L14.3539 16.687L14.0003 16.3335ZM14.5003 5.8335C14.5003 5.55735 14.2765 5.3335 14.0003 5.3335C13.7242 5.3335 13.5003 5.55735 13.5003 5.8335L14.5003 5.8335ZM7.81344 10.8537L13.6468 16.687L14.3539 15.9799L8.52055 10.1466L7.81344 10.8537ZM14.3539 16.687L20.1872 10.8537L19.4801 10.1466L13.6468 15.9799L14.3539 16.687ZM14.5003 16.3335L14.5003 5.8335L13.5003 5.8335L13.5003 16.3335L14.5003 16.3335Z" fill="#33363F"/>
<path d="M5.83301 18.6665L5.83301 19.8332C5.83301 21.1218 6.87768 22.1665 8.16634 22.1665L19.833 22.1665C21.1217 22.1665 22.1663 21.1218 22.1663 19.8332V18.6665" stroke="#33363F"/>
</svg>
