<svg width="28" height="28" viewBox="0 0 28 28" fill="none" xmlns="http://www.w3.org/2000/svg">
<path d="M6.29778 7.28441L6.6917 8.20356L6.29778 7.28441C5.47855 7.63551 4.99051 8.48635 5.10106 9.37077L5.88072 15.608C6.10087 17.3692 6.98184 18.981 8.34537 20.1173L12.8863 23.9014C13.628 24.5195 14.7053 24.5195 15.447 23.9014L19.988 20.1173C21.3515 18.981 22.2325 17.3692 22.4526 15.608L23.2323 9.37077C23.3428 8.48635 22.8548 7.63551 22.0356 7.28441L14.9545 4.24968C14.4514 4.03406 13.8819 4.03406 13.3788 4.24968L6.29778 7.28441Z" stroke="#545556" stroke-width="2" stroke-linecap="round"/>
<path d="M10.6663 14.3334L13.7351 17.4021C13.9582 17.6252 14.3296 17.5884 14.5047 17.3259L18.833 10.8334" stroke="#545556" stroke-width="2" stroke-linecap="round"/>
</svg>
