<svg width="28" height="28" viewBox="0 0 28 28" fill="none" xmlns="http://www.w3.org/2000/svg">
<path d="M9.15034 5.41682C8.6716 5.89557 8.48831 6.48358 8.40791 7.08161C8.33339 7.63585 8.33344 8.32528 8.33349 9.11347C8.33349 9.13483 8.3335 9.15625 8.3335 9.17775V18.1222L8.33349 18.1865C8.33344 18.9747 8.33339 19.6641 8.40791 20.2183C8.48831 20.8164 8.6716 21.4044 9.15034 21.8831C9.62909 22.3619 10.2171 22.5452 10.8151 22.6256C11.3694 22.7001 12.0588 22.7 12.847 22.7L12.9113 22.7H14.7002L14.7644 22.7C15.5526 22.7 16.2421 22.7001 16.7963 22.6256C17.3943 22.5452 17.9823 22.3619 18.4611 21.8831C18.9398 21.4044 19.1231 20.8164 19.2035 20.2183C19.278 19.6641 19.278 18.9747 19.2779 18.1865L19.2779 18.1222V9.17775C19.2779 9.15625 19.2779 9.13483 19.2779 9.11347C19.278 8.32527 19.278 7.63585 19.2035 7.08161C19.1231 6.48358 18.9398 5.89557 18.4611 5.41682C17.9823 4.93808 17.3943 4.75479 16.7963 4.67439C16.2421 4.59987 15.5526 4.59992 14.7644 4.59997C14.7431 4.59997 14.7217 4.59998 14.7002 4.59998H12.9113C12.8898 4.59998 12.8683 4.59997 12.847 4.59997C12.0588 4.59992 11.3694 4.59987 10.8151 4.67439C10.2171 4.75479 9.62909 4.93808 9.15034 5.41682Z" stroke="#545556" stroke-width="2"/>
<path d="M9.3335 17.2278H18.2779" stroke="#545556" stroke-width="2"/>
</svg>
