<svg width="28" height="28" viewBox="0 0 28 28" fill="none" xmlns="http://www.w3.org/2000/svg">
<path d="M24.1422 20.2176C24.5591 18.6619 24.6125 17.0312 24.2982 15.4516C23.984 13.8719 23.3107 12.3858 22.3302 11.108C21.3498 9.83025 20.0885 8.79517 18.644 8.08284C17.1996 7.3705 15.6106 7 14 7C12.3894 7 10.8004 7.3705 9.35597 8.08284C7.91149 8.79517 6.65024 9.83025 5.66979 11.108C4.68934 12.3858 4.01596 13.8719 3.70175 15.4516C3.38755 17.0312 3.44093 18.6619 3.85778 20.2176" stroke="#545556" stroke-width="2" stroke-linecap="round"/>
<path d="M14.8933 18.1794C15.462 19.007 15.062 20.2695 14 20.9993C12.9379 21.7292 11.6159 21.65 11.0472 20.8224C10.4174 19.9059 8.18263 14.5863 6.93291 11.562C6.72821 11.0666 7.33418 10.6502 7.72326 11.0189C10.0986 13.2697 14.2635 17.2629 14.8933 18.1794Z" stroke="#545556" stroke-width="2"/>
<path d="M14 7V9.33333" stroke="#545556" stroke-width="2" stroke-linecap="round"/>
<path d="M6.5752 10.0751L8.22511 11.725" stroke="#545556" stroke-width="2" stroke-linecap="round"/>
<path d="M21.4248 10.0751L19.7749 11.725" stroke="#545556" stroke-width="2" stroke-linecap="round"/>
<path d="M24.1421 20.2173L21.8883 19.6134" stroke="#545556" stroke-width="2" stroke-linecap="round"/>
<path d="M3.85791 20.2173L6.11174 19.6134" stroke="#545556" stroke-width="2" stroke-linecap="round"/>
</svg>
